<?xml version="1.0" standalone="no"?>
<!DOCTYPE svg PUBLIC "-//W3C//DTD SVG 20010904//EN"
 "http://www.w3.org/TR/2001/REC-SVG-20010904/DTD/svg10.dtd">
<svg version="1.0" xmlns="http://www.w3.org/2000/svg"
 width="512.000000pt" height="512.000000pt" viewBox="0 0 512.000000 512.000000"
 preserveAspectRatio="xMidYMid meet">

<g transform="translate(0.000000,512.000000) scale(0.100000,-0.100000)"
fill="blue" stroke="none">
<path d="M1023 4138 c-46 -22 -55 -64 -51 -259 l3 -181 33 -29 33 -29 1475 2
1476 3 24 28 c24 28 24 31 24 223 l0 196 -29 29 -29 29 -1469 -1 c-1014 0
-1475 -4 -1490 -11z"/>
<path d="M1033 3246 c-67 -30 -64 33 -61 -1092 l3 -1016 33 -29 32 -29 310 0
c218 0 317 4 335 12 57 26 55 -21 55 1082 l0 1016 -29 32 -29 33 -309 2 c-247
2 -314 0 -340 -11z"/>
<path d="M2180 3243 c-62 -32 -61 -4 -58 -969 l3 -873 29 -30 30 -31 324 0
324 0 29 29 29 29 0 896 0 896 -29 32 -29 33 -309 3 c-278 2 -311 1 -343 -15z"/>
<path d="M3336 3245 c-58 -31 -55 14 -55 -820 -1 -715 1 -772 17 -791 34 -42
49 -44 362 -44 320 0 345 3 370 49 14 28 14 1545 -1 1573 -23 43 -60 48 -371
48 -242 0 -298 -3 -322 -15z"/>
</g>
</svg>
